<?xml version="1.0" standalone="no"?>
<!DOCTYPE svg PUBLIC "-//W3C//DTD SVG 20010904//EN"
 "http://www.w3.org/TR/2001/REC-SVG-20010904/DTD/svg10.dtd">
<svg version="1.0" xmlns="http://www.w3.org/2000/svg"
 width="665.000000pt" height="665.000000pt" viewBox="0 0 665.000000 665.000000"
 preserveAspectRatio="xMidYMid meet">

<g transform="translate(0.000000,665.000000) scale(0.100000,-0.100000)"
fill="#000000" stroke="none">
<path d="M1988 5703 c-160 -166 -323 -521 -474 -1036 -155 -529 -322 -1384
-394 -2027 l-12 -105 -117 17 c-64 9 -192 29 -286 43 -468 72 -482 73 -529 55
-33 -12 -66 -66 -66 -108 0 -42 22 -84 54 -105 20 -14 265 -58 396 -73 14 -1
115 -16 225 -33 110 -18 223 -35 250 -39 l50 -7 3 -76 3 -76 -98 -11 c-54 -7
-159 -21 -233 -32 -74 -12 -257 -38 -406 -59 -225 -31 -277 -42 -303 -60 -59
-42 -61 -146 -4 -191 49 -39 55 -39 418 15 88 13 248 36 355 50 107 15 232 32
277 39 l82 12 34 -40 c53 -65 53 -63 -5 -90 -29 -13 -96 -44 -148 -68 -52 -25
-230 -107 -395 -183 -165 -76 -312 -147 -327 -157 -60 -41 -61 -136 -2 -187
64 -57 84 -51 601 194 64 30 117 55 119 55 2 0 47 21 101 46 194 91 290 134
298 134 5 0 32 -18 61 -40 304 -230 584 -379 942 -504 565 -196 1106 -205
1667 -26 358 113 717 299 993 512 41 32 79 58 84 58 9 0 721 -326 938 -429 83
-39 137 -41 179 -5 61 51 63 151 3 192 -15 11 -73 40 -129 66 -56 25 -146 67
-200 92 -54 25 -190 88 -303 139 -246 112 -290 134 -290 141 0 3 16 26 36 50
42 51 52 53 191 30 274 -45 912 -128 937 -122 16 4 41 20 57 36 25 24 29 36
29 83 0 44 -5 59 -25 81 -31 34 -51 41 -160 56 -49 6 -229 32 -400 56 -170 25
-352 50 -403 56 l-93 12 3 75 3 76 90 13 c50 7 216 33 370 57 154 24 307 47
340 50 119 14 175 58 175 138 0 46 -37 97 -80 112 -30 11 -60 9 -185 -10 -397
-60 -509 -77 -617 -93 l-116 -18 -12 101 c-68 602 -207 1340 -357 1890 -127
470 -267 828 -408 1046 -48 74 -150 189 -168 189 -18 0 -120 -92 -298 -270
-314 -314 -528 -568 -626 -746 -32 -59 -38 -65 -62 -59 -123 26 -340 32 -486
13 -49 -6 -98 -11 -109 -12 -13 -1 -28 16 -48 53 -71 131 -205 302 -418 536
-192 210 -481 485 -510 485 -3 0 -31 -26 -62 -57z m526 -1808 c96 -25 167 -66
236 -135 98 -98 150 -223 150 -362 0 -77 -12 -94 -28 -39 -29 94 -128 209
-229 264 -142 77 -354 77 -496 0 -101 -55 -200 -170 -229 -264 -16 -55 -28
-38 -28 39 0 234 155 435 382 496 70 19 170 20 242 1z m1860 0 c96 -25 167
-66 236 -135 98 -98 150 -223 150 -362 0 -77 -12 -94 -28 -39 -29 94 -128 209
-229 264 -142 77 -354 77 -496 0 -101 -55 -200 -170 -229 -264 -16 -55 -28
-38 -28 39 0 234 155 435 382 496 70 19 170 20 242 1z"/>
</g>
</svg>
