<?xml version="1.0" standalone="no"?>
<!DOCTYPE svg PUBLIC "-//W3C//DTD SVG 20010904//EN"
 "http://www.w3.org/TR/2001/REC-SVG-20010904/DTD/svg10.dtd">
<svg version="1.0" xmlns="http://www.w3.org/2000/svg"
 width="1200.000000pt" height="1200.000000pt" viewBox="0 0 1200.000000 1200.000000"
 preserveAspectRatio="xMidYMid meet">

<g transform="translate(0.000000,1200.000000) scale(0.100000,-0.100000)"
fill="white" stroke="none">
<path d="M3465 11114 c-534 -95 -984 -481 -1154 -991 -17 -48 -100 -394 -187
-768 -86 -374 -157 -681 -158 -682 -1 -1 -51 -9 -111 -18 -608 -90 -1095 -575
-1191 -1185 -13 -83 -14 -437 -11 -2750 l3 -2655 21 -86 c70 -274 182 -483
361 -671 212 -222 487 -369 792 -423 74 -13 513 -15 3456 -15 3756 0 3446 -6
3675 70 282 93 510 258 692 501 91 121 260 455 311 614 29 92 1366 5898 1377
5985 18 132 6 382 -24 510 -69 291 -198 522 -406 730 -168 168 -350 283 -564
356 -80 28 -6301 1466 -6414 1483 -99 15 -371 12 -468 -5z m3475 -1538 c1708
-395 3131 -728 3163 -741 259 -104 432 -371 415 -639 -3 -43 -120 -570 -294
-1324 l-289 -1253 -6 918 c-6 1017 -2 951 -75 1173 -155 466 -547 814 -1049
933 l-90 22 -2946 5 -2946 5 132 570 c72 314 138 588 145 610 67 206 240 365
463 426 161 43 -61 89 3377 -705z m1660 -1747 c221 -35 390 -178 467 -396 l28
-78 0 -2590 0 -2590 -27 -73 c-55 -153 -150 -264 -284 -334 -140 -74 162 -68
-3494 -68 -3635 0 -3352 -5 -3489 63 -89 43 -207 160 -251 246 -71 142 -64
-123 -67 2724 -4 2845 -8 2643 63 2783 81 162 244 284 417 313 77 13 6556 13
6637 0z"/>
<path d="M2223 7535 c-184 -40 -344 -203 -383 -389 -7 -35 -9 -523 -8 -1534
l3 -1482 155 96 c85 53 216 133 290 179 74 45 239 147 365 225 562 348 828
511 858 526 113 59 264 57 386 -5 23 -12 280 -212 570 -444 289 -232 548 -433
575 -447 40 -20 65 -24 125 -24 99 -1 159 26 233 102 30 31 366 416 746 854
381 438 707 808 725 822 18 14 60 38 92 53 54 25 71 28 170 28 99 0 116 -3
169 -28 33 -15 79 -43 102 -62 26 -21 298 -378 680 -893 350 -471 645 -866
655 -877 19 -19 19 11 19 1411 0 977 -3 1449 -11 1490 -31 171 -161 321 -334
387 l-60 22 -3030 2 c-2522 1 -3040 -1 -3092 -12z m1042 -600 c114 -29 202
-80 280 -158 226 -230 232 -575 15 -811 -114 -123 -257 -186 -423 -186 -111 0
-186 18 -280 67 -280 148 -392 494 -250 778 55 110 155 210 266 267 105 53
278 72 392 43z"/>
<path d="M1830 3950 c0 -5 5 -10 11 -10 5 0 7 5 4 10 -3 6 -8 10 -11 10 -2 0
-4 -4 -4 -10z"/>
</g>
</svg>
